<?xml version="1.0" encoding="utf-8"?>
<!-- Generator: Adobe Illustrator 15.1.0, SVG Export Plug-In . SVG Version: 6.00 Build 0)  -->
<!DOCTYPE svg PUBLIC "-//W3C//DTD SVG 1.1//EN" "http://www.w3.org/Graphics/SVG/1.1/DTD/svg11.dtd">
<svg version="1.1"
	 id="svg2" inkscape:version="0.46" sodipodi:version="0.32" sodipodi:docname="lamborghini logo.svg" inkscape:output_extension="org.inkscape.output.svg.inkscape" xmlns:dc="http://purl.org/dc/elements/1.1/" xmlns:cc="http://creativecommons.org/ns#" xmlns:rdf="http://www.w3.org/1999/02/22-rdf-syntax-ns#" xmlns:svg="http://www.w3.org/2000/svg" xmlns:sodipodi="http://sodipodi.sourceforge.net/DTD/sodipodi-0.dtd" xmlns:inkscape="http://www.inkscape.org/namespaces/inkscape"
	 xmlns="http://www.w3.org/2000/svg" xmlns:xlink="http://www.w3.org/1999/xlink" x="0px" y="0px" width="515px" height="110px"
	 viewBox="0 0 515 110" enable-background="new 0 0 515 110" xml:space="preserve">
<defs>
	
	
		<inkscape:perspective  id="perspective10" inkscape:persp3d-origin="372.04724 : 350.78739 : 1" inkscape:vp_z="744.09448 : 526.18109 : 1" inkscape:vp_y="0 : 1000 : 0" inkscape:vp_x="0 : 526.18109 : 1" sodipodi:type="inkscape:persp3d">
		</inkscape:perspective>
	
		<inkscape:perspective  id="perspective2475" inkscape:persp3d-origin="372.04724 : 350.78739 : 1" inkscape:vp_z="744.09448 : 526.18109 : 1" inkscape:vp_y="0 : 1000 : 0" inkscape:vp_x="0 : 526.18109 : 1" sodipodi:type="inkscape:persp3d">
		</inkscape:perspective>
</defs>
<sodipodi:namedview  id="base" inkscape:window-y="-4" inkscape:window-x="-4" inkscape:window-height="853" inkscape:window-width="1440" inkscape:current-layer="layer1" inkscape:document-units="px" inkscape:pageshadow="2" inkscape:pageopacity="0.0" showgrid="true" inkscape:cy="77.073531" inkscape:cx="207.48841" inkscape:zoom="2.8284271" borderopacity="1.0" bordercolor="#666666" pagecolor="#ffffff" objecttolerance="10" guidetolerance="10" gridtolerance="10000">
	<inkscape:grid  type="xygrid" enabled="true" visible="true" id="grid2383"></inkscape:grid>
</sodipodi:namedview>
<g id="layer1" inkscape:groupmode="layer" inkscape:label="Layer 1">
	<path id="path2481" fill="#FFFFFF" d="M310.928,103.24c-1.65-0.749-3.637-2.129-4.414-3.066c-1.224-1.474-1.205-1.91,0.134-3.25
		c1.24-1.24,1.978-1.318,3.71-0.391c4.348,2.327,8.214,0.922,12.282-4.462l3.779-5l-5.745-0.504
		c-6.117-0.536-8.236-1.384-8.261-3.306c-0.048-3.721-1.671-3.763-9.041-0.23c-11.636,5.576-20.943,4.588-20.943-2.224
		c0-5.265,4.609-11.905,10.343-14.899c3.288-1.717,3.018-2.293-1.542-3.289c-5.218-1.141-10.139,1.798-11.69,6.979
		c-1.554,5.186-8.309,12.682-13.61,15.103c-2.666,1.218-6.393,1.835-11.174,1.849c-6.275,0.02-7.558-0.301-10.25-2.566
		c-2.138-1.799-3.076-3.477-3.076-5.5c0-1.602-0.206-2.911-0.457-2.911c-0.252,0-5.539,2.348-11.75,5.216
		c-9.623,4.445-12.369,5.275-18.569,5.611c-8.666,0.47-12.59-0.883-14.26-4.912c-0.664-1.604-1.388-2.915-1.607-2.915
		c-0.221,0-3.981,1.8-8.356,4c-8.945,4.497-14.293,5.189-15.965,2.065c-1.804-3.369-1.153-5.732,3.479-12.641
		c2.482-3.701,4.326-6.918,4.098-7.146s-2.56,0.674-5.18,2.005c-3.802,1.933-5.897,4.116-10.381,10.819l-5.616,8.397l-6.718,0.296
		c-3.694,0.162-6.717-0.016-6.717-0.396s2.954-5.171,6.564-10.647c3.611-5.476,6.355-10.166,6.1-10.422s-2.647,0.662-5.315,2.039
		c-3.966,2.049-5.851,4.061-10.349,11.053l-5.5,8.549l-6.857,0.014c-5.701,0.012-6.755-0.238-6.25-1.485
		c0.334-0.825,0.895-2.213,1.246-3.085c0.468-1.158-1.006-0.754-5.471,1.5c-6.893,3.479-12.542,4.027-14.034,1.359
		c-0.915-1.633-1.158-1.633-4.584,0c-5.121,2.442-13.161,2.322-14.52-0.217c-1.018-1.901-1.158-1.891-6.563,0.5
		c-7.127,3.151-12.866,3.125-20.141-0.092l-5.73-2.534l-5.048,2.009c-13.77,5.48-28.637,5.222-35.577-0.618
		c-5.195-4.372-3.785-9.583,3.797-14.041c4.521-2.657,5.269-2.774,16.732-2.622c6.6,0.087,13.35,0.313,15,0.5
		c3.225,0.367,2.914,0.771,20.126-26.159c6.146-9.617,18.36-21.959,25.106-25.37c11.015-5.569,23.962-7.098,34.25-4.042
		c7.332,2.177,11.018,6.008,11.018,11.453c0,3.521-0.608,4.803-3.787,7.98c-4.64,4.64-10.236,6.428-20.213,6.457
		c-9.399,0.027-13.248-0.954-12.805-3.264c0.255-1.329,1.814-1.861,6.931-2.369c7.509-0.744,12.124-2.771,14.475-6.359
		c5.073-7.743-5.948-12.333-17.121-7.129c-6.226,2.899-12.538,9.799-20.056,21.922C73.513,59.137,70.86,63.138,66.537,68.472
		c-4.172,5.147-4.298,5.488-2.518,6.79c3.554,2.599,11.06,4.245,14.73,3.231c2.834-0.782,3.721-1.745,5.214-5.654
		c2.144-5.611,9.401-13.685,14.764-16.42c4.354-2.221,12.327-2.653,15.696-0.851c1.604,0.859,2.521,0.886,3.312,0.096
		c0.602-0.601,3.977-1.093,7.5-1.093c7.647,0,7.685-0.477-0.938,12.112c-3.373,4.926-5.904,9.186-5.623,9.467
		s3.088-0.709,6.236-2.201c5.028-2.381,6.402-3.727,11.272-11.044l5.546-8.334h6.85c6.824,0,7.915,0.536,5.667,2.783
		c-2.316,2.316-0.085,2.166,5.119-0.345c6.705-3.235,11.054-2.979,12.834,0.754l1.283,2.691l5.028-2.33
		c2.765-1.281,5.303-2.604,5.64-2.941s2.247-0.612,4.245-0.612c7.431,0,7.945,4.701,1.598,14.567
		c-2.439,3.791-4.285,7.045-4.101,7.229c0.184,0.185,3.099-1.061,6.477-2.766c5.96-3.008,6.462-3.584,16.852-19.315l10.709-16.215
		l6.75-0.295c5.026-0.22,6.74,0.035,6.713,1c-0.021,0.712-2.264,4.446-4.986,8.295l-4.948,7l5.224,0.311
		c6.833,0.406,8.752,2.186,8.732,8.095c-0.009,2.527-0.429,5.248-0.935,6.047c-0.505,0.799-0.702,1.801-0.439,2.229
		c0.879,1.421,7.386-2.895,11.625-7.711c5.562-6.318,10.397-8.42,19.438-8.448c6.176-0.019,7.579,0.319,10.091,2.433l2.918,2.456
		l6.409-3.036c6.243-2.958,6.598-3.008,13.699-1.955c4.011,0.594,9.073,1.08,11.25,1.08c2.178,0,3.96,0.431,3.96,0.956
		c0,2.406-5.337,8.424-9.206,10.381c-4.251,2.149-9.255,8.108-8.219,9.786c1.75,2.831,14.675-2.899,16.505-7.317
		c1.714-4.138,8.469-10.697,13.251-12.869c4.624-2.099,12.692-2.529,15.842-0.844c1.477,0.79,2.344,0.79,3.134,0
		c1.392-1.392,13.693-1.455,13.693-0.07c0,0.563-2.912,5.376-6.47,10.697c-3.559,5.32-6.304,9.84-6.102,10.043
		c0.203,0.203,3.113-1.018,6.468-2.711c5.893-2.975,6.467-3.631,16.91-19.315l10.811-16.236l6.691-0.295
		c4.263-0.188,6.691,0.092,6.691,0.772c0,0.587-2.912,5.422-6.47,10.743c-3.559,5.321-6.304,9.841-6.1,10.045
		c0.203,0.203,2.559-0.739,5.233-2.094c7.251-3.675,11.627-3.864,13.386-0.578c1.566,2.928,0.623,5.746-4.461,13.328
		c-2.426,3.618-4.012,6.579-3.522,6.579s3.404-1.233,6.478-2.741c4.826-2.366,6.332-3.869,11.028-11l5.439-8.259h6.994
		c3.847,0,6.993,0.24,6.993,0.533c0,0.293-3.16,5.243-7.022,11c-3.861,5.757-6.849,10.467-6.638,10.467s3.259-1.327,6.772-2.95
		c5.91-2.729,6.763-3.551,11.388-10.977l5-8.027l7.285-0.023c6.896-0.022,7.23,0.08,6.25,1.911c-1.69,3.158-1.273,3.221,3.932,0.582
		c2.732-1.384,6.467-2.517,8.301-2.517c7.119,0,7.513,4.686,1.21,14.415c-2.464,3.805-4.3,7.096-4.079,7.316
		c0.22,0.22,3.066-0.947,6.326-2.592c5.149-2.6,6.622-4.052,11.228-11.066l5.301-8.073h6.873c3.781,0,6.874,0.264,6.874,0.585
		s-3.134,5.272-6.964,11c-3.83,5.729-6.734,10.415-6.454,10.415c0.281,0,3.875-1.575,7.986-3.5s7.886-3.5,8.387-3.5
		c0.932,0,2.522,3.856,1.863,4.516c-0.201,0.2-6.15,3.115-13.221,6.478c-15.181,7.217-19.45,7.701-21.02,2.379l-0.923-3.129
		l-7.049,3.379c-15.129,7.25-20.168,2.115-11.136-11.35c2.459-3.665,4.304-6.831,4.1-7.035c-0.204-0.205-2.571,0.743-5.261,2.106
		c-3.982,2.018-5.952,4.073-10.606,11.067l-5.716,8.589h-7.108h-7.108l1.695-2.587c0.932-1.422,1.479-2.802,1.216-3.065
		c-0.264-0.263-3.211,0.901-6.552,2.587c-9.046,4.566-14.378,4.02-15.283-1.568c-0.339-2.09-0.493-2.064-7.346,1.208
		c-15.238,7.276-20.207,1.92-10.979-11.835c2.486-3.707,4.271-6.739,3.967-6.739s-2.792,1.134-5.528,2.521
		c-4.067,2.061-6.002,4.065-10.616,11l-5.644,8.479h-6.85c-3.768,0-6.85-0.241-6.85-0.535s0.727-1.644,1.614-3
		c2.063-3.147,1.589-3.101-5.646,0.551c-4.991,2.52-6.731,4.155-10.575,9.936c-3.121,4.694-5.774,7.479-8.248,8.662
		C322.818,104.459,314.738,104.971,310.928,103.24z M36.679,80.527c5.426-2.52,2.792-3.917-8.823-4.684
		c-11.34-0.748-16.251,2.088-9.177,5.3C22.453,82.857,32.391,82.517,36.679,80.527z M216.146,78.156
		c3.051-2.566,8.283-11.947,8.283-14.85c0-1.98-1.869-2.219-5.203-0.663c-2.652,1.239-9.797,11.986-9.797,14.738
		C209.429,81.295,212.056,81.598,216.146,78.156z M260.769,76.616c3.849-4.261,7.66-10.995,7.66-13.536
		c0-3.082-3.064-2.839-6.526,0.516c-4.252,4.121-9.033,13.076-8.176,15.311C254.749,81.57,256.936,80.859,260.769,76.616z
		 M336.16,71.324c5.438-7.754,5.99-10.753,1.978-10.753c-1.176,0-4.115,2.114-6.773,4.872c-5.283,5.482-7.843,11.331-5.953,13.607
		C327.446,81.502,330.626,79.215,336.16,71.324z M102.208,77.014c3.231-2.264,10.479-13.325,9.834-15.008
		c-2.178-5.673-15.613,6.777-15.613,14.467C96.429,79.008,99.015,79.25,102.208,77.014z M426.428,48.774
		c-3.713-0.585-5-2.07-5-5.768c0-4.132,2.943-6.435,8.223-6.435c4.151,0,7.777,2.725,7.777,5.845
		C437.428,45.981,431.275,49.538,426.428,48.774z M494.176,48.429c-4.807-1.792-4.921-8.546-0.182-10.706
		c8.521-3.882,16.414,2.784,10.184,8.6C501.332,48.979,497.702,49.744,494.176,48.429z M158.179,33.491
		c-4.216-2.455-0.724-12,6.065-16.575c2.764-1.863,4.649-2.202,12.226-2.202c4.928,0,8.959,0.341,8.959,0.757
		c0,0.416-1.406,2.878-3.123,5.472c-1.718,2.593-2.892,4.947-2.608,5.23c1.284,1.284,8.414-3.476,11.014-7.353
		c2.546-3.797,3.27-4.25,6.783-4.25c2.164,0,3.935,0.344,3.935,0.764s-1.587,3.12-3.527,6c-2.134,3.169-3.012,5.236-2.222,5.236
		c2.348,0,5.671-3.011,8.328-7.546c2.472-4.217,2.848-4.454,7.074-4.454c4.911,0,4.907-0.308,0.08,6.82
		c-1.609,2.376-2.652,4.594-2.317,4.929s2.106-0.105,3.938-0.979c2.317-1.105,5.126-4.344,9.238-10.655l5.908-9.067l4.285-0.024
		c3.978-0.022,4.208,0.119,3.215,1.976c-0.977,1.825-0.761,2,2.465,2c3.862,0,4.03,0.207,2.5,3.066
		c-0.767,1.432-2.131,1.943-5.25,1.97c-4.033,0.034-4.396,0.302-8.396,6.207c-2.3,3.394-3.963,6.524-3.696,6.955
		c0.7,1.134,7.696-1.939,8.878-3.899c0.55-0.913,2.388-3.223,4.085-5.133c2.653-2.988,3.85-3.537,8.542-3.927
		c4.831-0.4,5.734-0.165,7.868,2.052l2.41,2.504l5.422-2.397c6.284-2.779,14.466-3.327,13.537-0.905
		c-0.508,1.323-0.168,1.323,2.999,0c4.56-1.905,7.312-1.895,8.391,0.032c0.76,1.358,1.352,1.34,5.405-0.162
		c7.806-2.893,10.026-0.043,5.341,6.852c-3.161,4.651-3.133,4.902,0.407,3.667c1.669-0.582,3.146-1.957,3.464-3.226
		c0.306-1.217,1.911-3.512,3.569-5.1c4.047-3.877,12.751-4.865,15.819-1.796c1.095,1.094,2.212,2.608,2.484,3.364
		c0.993,2.762,7.879-2.207,12.204-8.805c3.89-5.933,4.222-6.183,8.302-6.25c2.337-0.039,4.25,0.187,4.25,0.5s-1.372,2.563-3.049,5
		l-3.048,4.43h3.513c4.181,0,6.051,2.596,5.074,7.042l-0.643,2.925l3.116-1.31c1.713-0.72,4.238-2.963,5.611-4.983
		c2.171-3.194,3.015-3.674,6.461-3.674c2.18,0,3.964,0.243,3.964,0.54c0,0.297-1.579,2.883-3.508,5.748s-3.135,5.333-2.679,5.484
		s2.407-0.384,4.337-1.19c2.673-1.117,5.011-3.744,9.812-11.024l6.302-9.558h4.391h4.392l-1.74,2.75
		c-0.957,1.513-4.171,6.26-7.141,10.549c-2.971,4.29-5.179,8.021-4.908,8.292c0.271,0.271,2.335-0.244,4.587-1.145
		c2.841-1.137,4.945-2.985,6.875-6.04c2.584-4.091,3.086-4.402,7.09-4.404c4.657-0.002,4.667,0.079,0.699,5.498
		c-1.208,1.65-2.721,3.992-3.362,5.203c-1.156,2.184-1.136,2.191,2.312,0.75c4.67-1.951,6.543-1.83,6.543,0.424
		c0,1.456-2.006,2.601-8.936,5.099c-8.827,3.183-11.064,3.277-11.064,0.464c0-1.896-0.9-1.824-7.327,0.58
		c-5.531,2.07-8.673,1.842-8.673-0.628c0-1.854-0.837-1.77-7.397,0.741c-4.541,1.737-5.857,1.9-7.09,0.877
		c-0.832-0.691-1.513-1.928-1.513-2.75c0-1.76-1.769-1.468-10.488,1.729c-9.651,3.538-16.181,1.519-15.173-4.693
		c0.294-1.813,0.339-3.296,0.099-3.296c-0.239,0-2.281,1.792-4.537,3.981c-3.763,3.651-8.868,6-13.074,6.014
		c-0.92,0.003-2.951-1.07-4.513-2.384l-2.84-2.389l-6.238,2.496c-9.3,3.721-12.538,1.361-7.853-5.72
		c3.317-5.013,3.281-5.392-0.336-3.521c-1.624,0.84-4.346,3.552-6.048,6.026c-2.795,4.062-3.482,4.499-7.083,4.499
		c-3.816,0-3.937-0.096-2.81-2.25c0.647-1.237,2.013-3.444,3.035-4.904c2.653-3.79,2.424-5.061-0.66-3.655
		c-1.385,0.631-3.855,3.321-5.49,5.979c-2.755,4.478-3.267,4.831-6.982,4.831c-2.205,0-4.007-0.337-4.005-0.75
		c0.002-0.412,1.351-2.775,2.996-5.25c1.645-2.475,2.993-4.798,2.995-5.163c0.009-1.38-6.025,1.682-6.546,3.322
		c-0.913,2.878-7.195,7.703-10.945,8.407c-3.881,0.728-9.036-0.902-9.89-3.128c-0.428-1.113-1.798-0.902-7.095,1.091
		c-8.087,3.044-9.872,3.08-11.759,0.237l-1.483-2.234l-6.784,2.395c-6.569,2.319-6.828,2.336-8.143,0.538
		c-1.323-1.809-1.491-1.809-6.517-0.002l-5.159,1.855l-1.813-2.24l-1.813-2.24l-5.578,2.087c-4.108,1.537-6.074,1.822-7.459,1.081
		c-1.257-0.672-2.753-0.675-4.511-0.006C161.677,34.808,160.412,34.792,158.179,33.491z M244.244,25.686
		c3.864-6.875,2.266-9.792-2.117-3.864c-2.763,3.736-3.822,6.293-2.963,7.152C240.57,30.379,242.199,29.323,244.244,25.686z
		 M311.258,26.321c2.595-4.231,3.099-7.25,1.21-7.25c-1.783,0-6.039,6.094-6.039,8.648C306.429,30.646,309.076,29.88,311.258,26.321
		z M338.178,25.615c2.367-3.512,2.617-6.089,0.654-6.743c-1.296-0.431-6.403,6.948-6.403,9.251
		C332.429,30.757,335.664,29.346,338.178,25.615z M170.893,24.839c2.297-3.381,3.257-6.268,2.083-6.268
		c-3.021,0-8.547,5.758-8.547,8.904C164.429,30.015,168.506,28.352,170.893,24.839z M363.628,10.372
		c-1.802-1.802-1.445-4.598,0.734-5.765c3.095-1.656,5.904-1.206,7.164,1.148c0.994,1.859,0.835,2.453-1.076,4
		C367.856,11.856,365.34,12.083,363.628,10.372z M395,10c-0.864-0.864-1.571-1.957-1.571-2.429c0-1.646,3.16-4,5.371-4
		c4.43,0,6.364,5.001,2.694,6.965C398.781,11.988,396.826,11.827,395,10z"/>
</g>
</svg>
