<?xml version="1.0" encoding="UTF-8" standalone="no"?>
<!-- Created with Inkscape (http://www.inkscape.org/) -->
<svg
   xmlns:dc="http://purl.org/dc/elements/1.1/"
   xmlns:cc="http://creativecommons.org/ns#"
   xmlns:rdf="http://www.w3.org/1999/02/22-rdf-syntax-ns#"
   xmlns:svg="http://www.w3.org/2000/svg"
   xmlns="http://www.w3.org/2000/svg"
   xmlns:sodipodi="http://sodipodi.sourceforge.net/DTD/sodipodi-0.dtd"
   xmlns:inkscape="http://www.inkscape.org/namespaces/inkscape"
   width="515"
   height="110"
   id="svg2"
   sodipodi:version="0.32"
   inkscape:version="0.46"
   version="1.0"
   sodipodi:docname="lamborghini logo.svg"
   inkscape:output_extension="org.inkscape.output.svg.inkscape">
  <defs
     id="defs4">
    <inkscape:perspective
       sodipodi:type="inkscape:persp3d"
       inkscape:vp_x="0 : 526.18109 : 1"
       inkscape:vp_y="0 : 1000 : 0"
       inkscape:vp_z="744.09448 : 526.18109 : 1"
       inkscape:persp3d-origin="372.04724 : 350.78739 : 1"
       id="perspective10" />
    <inkscape:perspective
       id="perspective2475"
       inkscape:persp3d-origin="372.04724 : 350.78739 : 1"
       inkscape:vp_z="744.09448 : 526.18109 : 1"
       inkscape:vp_y="0 : 1000 : 0"
       inkscape:vp_x="0 : 526.18109 : 1"
       sodipodi:type="inkscape:persp3d" />
  </defs>
  <sodipodi:namedview
     id="base"
     pagecolor="#ffffff"
     bordercolor="#666666"
     borderopacity="1.0"
     gridtolerance="10000"
     guidetolerance="10"
     objecttolerance="10"
     inkscape:pageopacity="0.0"
     inkscape:pageshadow="2"
     inkscape:zoom="2.8284271"
     inkscape:cx="207.48841"
     inkscape:cy="77.073531"
     inkscape:document-units="px"
     inkscape:current-layer="layer1"
     showgrid="true"
     inkscape:window-width="1440"
     inkscape:window-height="853"
     inkscape:window-x="-4"
     inkscape:window-y="-4">
    <inkscape:grid
       type="xygrid"
       id="grid2383"
       visible="true"
       enabled="true" />
  </sodipodi:namedview>
  <metadata
     id="metadata7">
    <rdf:RDF>
      <cc:Work
         rdf:about="">
        <dc:format>image/svg+xml</dc:format>
        <dc:type
           rdf:resource="http://purl.org/dc/dcmitype/StillImage" />
      </cc:Work>
    </rdf:RDF>
  </metadata>
  <g
     inkscape:label="Layer 1"
     inkscape:groupmode="layer"
     id="layer1">
    <path
       style="fill:#000000"
       d="M 310.92818,103.24093 C 309.27797,102.49126 307.29163,101.11135 306.51409,100.17447 C 305.29045,98.700079 305.30843,98.262999 306.64781,96.923619 C 307.88782,95.683609 308.62493,95.606149 310.35811,96.533719 C 314.70521,98.860219 318.57149,97.455549 322.64038,92.071429 L 326.41898,87.071429 L 320.67378,86.567499 C 314.55666,86.030939 312.43795,85.183229 312.41326,83.262409 C 312.3654,79.540439 310.74288,79.498899 303.37274,83.030949 C 291.73703,88.607209 282.42857,87.619149 282.42857,80.807789 C 282.42857,75.542989 287.03879,68.901799 292.7715,65.908419 C 296.05938,64.191619 295.7889,63.614619 291.22932,62.618449 C 286.01245,61.478679 281.09109,64.416749 279.53884,69.597719 C 277.98529,74.782989 271.23025,82.278759 265.92857,84.700419 C 263.26272,85.918109 259.53602,86.534829 254.7553,86.549469 C 248.47945,86.568679 247.1971,86.247539 244.5053,83.982539 C 242.36713,82.183389 241.42857,80.505599 241.42857,78.482539 C 241.42857,76.881429 241.22298,75.571429 240.9717,75.571429 C 240.72042,75.571429 235.43292,77.918669 229.2217,80.787519 C 219.59889,85.232129 216.85243,86.061969 210.6527,86.398129 C 201.98641,86.868029 198.06257,85.516259 196.39304,81.485639 C 195.72913,79.882829 195.00553,78.571429 194.78505,78.571429 C 194.56457,78.571429 190.80415,80.371429 186.42857,82.571429 C 177.48333,87.069009 172.13556,87.760969 170.46375,84.637169 C 168.66015,81.267109 169.31044,78.904109 173.94232,71.996769 C 176.42488,68.294619 178.26889,65.078419 178.04012,64.849639 C 177.81134,64.620869 175.48052,65.523129 172.8605,66.854659 C 169.05845,68.786909 166.96301,70.970859 162.48006,77.673529 L 156.86329,86.071429 L 150.14593,86.367119 C 146.45138,86.529749 143.42857,86.351839 143.42857,85.971769 C 143.42857,85.591699 146.38289,80.800459 149.99373,75.324579 C 153.60457,69.848689 156.34932,65.158849 156.09317,64.902689 C 155.83702,64.646539 153.44519,65.563929 150.778,66.941339 C 146.81165,68.989659 144.92702,71.002419 140.42857,77.994389 L 134.92857,86.543079 L 128.07158,86.557249 C 122.36995,86.569039 121.31687,86.318689 121.82158,85.071429 C 122.15543,84.246429 122.71636,82.858249 123.06811,81.986589 C 123.53542,80.828569 122.06188,81.232539 117.59663,83.486589 C 110.70456,86.965699 105.05487,87.512989 103.5624,84.846089 C 102.64809,83.212309 102.40486,83.212309 98.97879,84.846089 C 93.85753,87.288249 85.818092,87.167779 84.459118,84.628509 C 83.441619,82.727299 83.300721,82.738029 77.895421,85.128509 C 70.768828,88.280229 65.029476,88.254209 57.755257,85.037199 L 52.024918,82.502969 L 46.976744,84.511979 C 33.207372,89.991729 18.339606,89.733229 11.399376,83.893409 C 6.204419,79.522139 7.614092,74.310229 15.196962,69.852799 C 19.716885,67.195859 20.465431,67.078529 31.92857,67.230229 C 38.52857,67.317569 45.27857,67.542569 46.92857,67.730229 C 50.153573,68.097019 49.842547,68.501279 67.054548,41.571429 C 73.201046,31.954636 85.415314,19.612292 92.16177,16.200938 C 103.17558,10.631793 116.12346,9.10378 126.41159,12.159027 C 133.74343,14.336349 137.42857,18.16738 137.42857,23.612153 C 137.42857,27.133018 136.82045,28.414847 133.64232,31.592976 C 129.00269,36.232598 123.40547,38.020434 113.42857,38.049545 C 104.02922,38.076971 100.1814,37.09615 100.6243,34.785701 C 100.87897,33.457198 102.43867,32.924199 107.55526,32.417172 C 115.0635,31.673145 119.67876,29.64541 122.02939,26.057904 C 127.10287,18.314799 116.0817,13.725637 104.90829,18.928761 C 98.68272,21.827823 92.37052,28.727283 84.852308,40.850652 C 73.512466,59.136529 70.859249,63.137769 66.53689,68.471649 C 62.365845,73.618799 62.239374,73.959919 64.019514,75.261589 C 67.573323,77.860199 75.079009,79.506729 78.750161,78.493079 C 81.584033,77.710609 82.471045,76.748729 83.964191,72.838989 C 86.107307,67.227319 93.3658,59.154259 98.72747,56.418939 C 103.0812,54.197839 111.05515,53.766029 114.42393,55.568949 C 116.02895,56.427929 116.94574,56.454259 117.73593,55.664069 C 118.33688,55.063119 121.71171,54.571429 125.23556,54.571429 C 132.88313,54.571429 132.9201,54.094109 124.29734,66.683669 C 120.92364,71.609399 118.39317,75.869359 118.67406,76.150259 C 118.95496,76.431149 121.76153,75.440939 124.91089,73.949789 C 129.93909,71.569049 131.31295,70.222889 136.18289,62.905019 L 141.72878,54.571429 L 148.57868,54.571429 C 155.40273,54.571429 156.49303,55.106969 154.24524,57.354759 C 151.9292,59.670799 154.16009,59.520379 159.36474,57.009569 C 166.06954,53.775069 170.41823,54.030399 172.19822,57.763099 L 173.48179,60.454769 L 178.50959,58.125349 C 181.27489,56.844169 183.81292,55.520419 184.14965,55.183679 C 184.48639,54.846939 186.3969,54.571429 188.39524,54.571429 C 195.82499,54.571429 196.3405,59.272469 189.99263,69.138449 C 187.55286,72.930379 185.70732,76.183509 185.89144,76.367629 C 186.07555,76.551739 188.99034,75.307039 192.36875,73.601629 C 198.32818,70.593309 198.83056,70.017469 209.21994,54.286149 L 219.92857,38.071429 L 226.67857,37.775739 C 231.705,37.555552 233.41916,37.810895 233.39171,38.775739 C 233.37143,39.488369 231.12786,43.221429 228.40598,47.071429 L 223.45711,54.071429 L 228.68097,54.381949 C 235.51377,54.788109 237.43295,56.567109 237.41326,62.476419 C 237.40484,65.003669 236.98453,67.724939 236.47924,68.523679 C 235.97395,69.322419 235.7762,70.324889 236.03979,70.751379 C 236.91829,72.172829 243.4252,67.856829 247.66442,63.040829 C 253.22585,56.722709 258.06169,54.621069 267.10184,54.593389 C 273.27775,54.574479 274.68081,54.912799 277.19293,57.026599 L 280.11073,59.481769 L 286.51965,56.446139 C 292.76293,53.488969 293.11701,53.438439 300.21942,54.490969 C 304.22938,55.085219 309.29188,55.571429 311.46942,55.571429 C 313.64695,55.571429 315.42857,56.001449 315.42857,56.527019 C 315.42857,58.933699 310.09204,64.951379 306.22245,66.908199 C 301.97148,69.057889 296.96761,75.016559 298.00448,76.694249 C 299.75401,79.525059 312.67924,73.794689 314.50913,69.376939 C 316.22298,65.239339 322.97784,58.679329 327.76051,56.507819 C 332.38398,54.408579 340.45274,53.978819 343.60167,55.664069 C 345.07815,56.454259 345.94574,56.454259 346.73593,55.664069 C 348.12732,54.272679 360.42857,54.209489 360.42857,55.593729 C 360.42857,56.155989 357.51722,60.969639 353.95891,66.290729 C 350.40059,71.611819 347.65505,76.131249 347.85772,76.333909 C 348.06038,76.536569 350.971,75.316809 354.32577,73.623319 C 360.21809,70.648889 360.79268,69.992559 371.23592,54.307849 L 382.04649,38.071429 L 388.73753,37.775739 C 393.0001,37.587368 395.42857,37.867669 395.42857,38.548036 C 395.42857,39.135429 392.51722,43.96964 388.95891,49.290728 C 385.40059,54.611819 382.65584,59.132039 382.85947,59.335659 C 383.0631,59.539289 385.41812,58.596939 388.09285,57.241549 C 395.34399,53.567119 399.71977,53.378499 401.47842,56.664569 C 403.0452,59.592119 402.10188,62.410829 397.01831,69.991759 C 394.59163,73.610579 393.00623,76.571429 393.49521,76.571429 C 393.98419,76.571429 396.89934,75.337919 399.97333,73.830299 C 404.7989,71.463609 406.30542,69.960949 411.00159,62.830299 L 416.44078,54.571429 L 423.43468,54.571429 C 427.28132,54.571429 430.42857,54.811429 430.42857,55.104759 C 430.42857,55.398099 427.26851,60.348099 423.4062,66.104759 C 419.5439,71.861429 416.55666,76.571429 416.76789,76.571429 C 416.97912,76.571429 420.02668,75.243879 423.54025,73.621319 C 429.45033,70.892059 430.30288,70.070309 434.92857,62.644429 L 439.92857,54.617639 L 447.21375,54.594539 C 454.10971,54.572669 454.44363,54.674769 453.46375,56.505689 C 451.77336,59.664219 452.19008,59.725969 457.39533,57.088279 C 460.12704,55.704009 463.86204,54.571429 465.69533,54.571429 C 472.81536,54.571429 473.20889,59.257059 466.90601,68.986939 C 464.44214,72.790459 462.60624,76.082429 462.82622,76.302409 C 463.0462,76.522399 465.89323,75.356059 469.15295,73.710559 C 474.30206,71.111299 475.77517,69.659419 480.38021,62.645089 L 485.68072,54.571429 L 492.55465,54.571429 C 496.3353,54.571429 499.42857,54.834759 499.42857,55.156609 C 499.42857,55.478449 496.29466,60.428449 492.46432,66.156609 C 488.63398,71.884759 485.72979,76.571429 486.01056,76.571429 C 486.29133,76.571429 489.88511,74.996429 493.99674,73.071429 C 498.10837,71.146429 501.88224,69.571429 502.38312,69.571429 C 503.31455,69.571429 504.90582,73.427509 504.24647,74.086859 C 504.04588,74.287449 498.09648,77.202229 491.02557,80.564139 C 475.8454,87.781659 471.57545,88.264939 470.00603,82.943169 L 469.08348,79.814909 L 462.03424,83.193169 C 446.90555,90.443399 441.86715,85.308109 450.8994,71.844189 C 453.35835,68.178749 455.2031,65.012619 454.99883,64.808359 C 454.79456,64.604089 452.427,65.552009 449.73757,66.914849 C 445.75584,68.932539 443.78613,70.987919 439.13161,77.982079 L 433.41551,86.571429 L 426.30703,86.571429 L 419.19855,86.571429 L 420.89346,83.984669 C 421.82566,82.561949 422.37296,81.182479 422.10966,80.919189 C 421.84637,80.655899 418.89825,81.819939 415.55828,83.505949 C 406.51213,88.072439 401.17981,87.525109 400.27439,81.937159 C 399.93582,79.847659 399.78176,79.873009 392.92857,83.145639 C 377.69116,90.422019 372.72219,85.065649 381.94963,71.310749 C 384.43622,67.604129 386.22126,64.571429 385.91639,64.571429 C 385.61152,64.571429 383.12386,65.705619 380.38826,67.091849 C 376.32077,69.153009 374.38617,71.157419 369.7714,78.091849 L 364.12836,86.571429 L 357.27846,86.571429 C 353.51102,86.571429 350.42857,86.330599 350.42857,86.036249 C 350.42857,85.741899 351.15532,84.391899 352.04358,83.036249 C 354.10572,79.889029 353.63178,79.935259 346.39764,83.587039 C 341.40695,86.106329 339.66646,87.741509 335.8225,93.522289 C 332.70121,98.216279 330.04844,101.00251 327.57491,102.1848 C 322.81743,104.45878 314.73738,104.97141 310.92818,103.24093 z M 36.67857,80.526699 C 42.105145,78.008179 39.471002,76.610149 27.855576,75.844059 C 16.515667,75.096129 11.604692,77.932019 18.67857,81.143409 C 22.453393,82.857089 32.390972,82.516619 36.67857,80.526699 z M 216.14542,78.156229 C 219.19617,75.589189 224.42857,66.209099 224.42857,63.307079 C 224.42857,61.325659 222.55947,61.087399 219.22562,62.643829 C 216.57313,63.882159 209.42857,74.629779 209.42857,77.381609 C 209.42857,81.294259 212.05598,81.597269 216.14542,78.156229 z M 260.7689,76.616489 C 264.61789,72.356119 268.42857,65.621659 268.42857,63.079879 C 268.42857,59.998599 265.36469,60.241009 261.90303,63.596179 C 257.65095,67.717469 252.86916,76.671239 253.72674,78.906059 C 254.74909,81.570259 256.93576,80.859319 260.7689,76.616489 z M 336.16083,71.324269 C 341.5992,63.570419 342.15056,60.571429 338.13774,60.571429 C 336.96201,60.571429 334.02311,62.685589 331.36433,65.444029 C 326.08125,70.925139 323.52223,76.774429 325.41147,79.050819 C 327.44534,81.501489 330.62653,79.214879 336.16083,71.324269 z M 102.20844,77.013059 C 105.44009,74.749529 112.68756,63.688719 112.04177,62.005819 C 109.86498,56.333209 96.42857,68.782999 96.42857,76.472559 C 96.42857,79.007929 99.01504,79.249799 102.20844,77.013059 z M 426.42857,48.773795 C 422.7153,48.18858 421.42857,46.704182 421.42857,43.005688 C 421.42857,38.874181 424.37132,36.571429 429.65108,36.571429 C 433.80244,36.571429 437.42857,39.296573 437.42857,42.416441 C 437.42857,45.980965 431.27469,49.537549 426.42857,48.773795 z M 494.17654,48.429265 C 489.36962,46.637422 489.25499,39.882808 493.99484,37.723186 C 502.51497,33.841158 510.40901,40.507399 504.17857,46.322985 C 501.33257,48.979484 497.70303,49.743813 494.17654,48.429265 z M 158.17857,33.49133 C 153.96279,31.035866 157.45567,21.491485 164.24426,16.916654 C 167.00833,15.053944 168.89391,14.714286 176.47046,14.714286 C 181.39742,14.714286 185.42857,15.054993 185.42857,15.471413 C 185.42857,15.887833 184.02318,18.350297 182.30547,20.943555 C 180.58777,23.536813 179.41419,25.89038 179.69751,26.173704 C 180.98157,27.45776 188.11146,22.698023 190.71092,18.821429 C 193.25688,15.024619 193.98025,14.571429 197.49467,14.571429 C 199.65831,14.571429 201.42857,14.914936 201.42857,15.334777 C 201.42857,15.754619 199.84161,18.454619 197.902,21.334777 C 195.76794,24.503682 194.89036,26.571429 195.6795,26.571429 C 198.0275,26.571429 201.35052,23.560749 204.00846,19.025327 C 206.47972,14.808431 206.85615,14.571429 211.08261,14.571429 C 215.9935,14.571429 215.98992,14.263746 211.162,21.391704 C 209.55258,23.767856 208.50981,25.986007 208.84474,26.320928 C 209.17966,26.65585 210.95184,26.215455 212.78293,25.342272 C 215.10003,24.237324 217.90836,20.998059 222.02037,14.687363 L 227.92857,5.62006 L 232.21375,5.595745 C 236.1919,5.573171 236.42224,5.714733 235.42857,7.571429 C 234.45203,9.396118 234.66808,9.571429 237.89339,9.571429 C 241.75563,9.571429 241.92377,9.77762 240.39339,12.63717 C 239.62713,14.068938 238.26326,14.580744 235.14339,14.607284 C 231.1103,14.641593 230.7483,14.909224 226.74755,20.814387 C 224.44799,24.208573 222.78456,27.338419 223.05105,27.7696 C 223.75156,28.90306 230.74759,25.830371 231.92857,23.87055 C 232.47857,22.95783 234.31693,20.647814 236.01381,18.73718 C 238.66709,15.749681 239.86312,15.199938 244.55624,14.810748 C 249.38709,14.410136 250.29006,14.645622 252.42376,16.862531 L 254.8341,19.366866 L 260.25576,16.969147 C 266.54051,14.189736 274.72222,13.642619 273.79309,16.063898 C 273.28529,17.387189 273.62527,17.387189 276.79235,16.063898 C 281.35221,14.158668 284.10415,14.169299 285.18256,16.09631 C 285.94244,17.454149 286.53459,17.436371 290.58814,15.934021 C 298.3936,13.041113 300.61434,15.890511 295.92857,22.786241 C 292.76795,27.437517 292.79582,27.687969 296.33667,26.453619 C 298.00481,25.872103 299.48149,24.496724 299.79994,23.227928 C 300.10527,22.011372 301.71167,19.716326 303.3697,18.127826 C 307.41608,14.251152 316.12024,13.263103 319.18922,16.332081 C 320.28336,17.426223 321.40105,18.940179 321.67296,19.696429 C 322.66586,22.457877 329.55239,17.489353 333.87745,10.891086 C 337.76653,4.957946 338.09856,4.707958 342.17857,4.641086 C 344.51607,4.602775 346.42857,4.82785 346.42857,5.141254 C 346.42857,5.454657 345.05695,7.704657 343.38053,10.141254 L 340.33249,14.571429 L 343.84535,14.571429 C 348.02603,14.571429 349.89599,17.166801 348.91929,21.613703 L 348.27685,24.538673 L 351.39249,23.228646 C 353.10609,22.508131 355.63145,20.265501 357.0044,18.245024 C 359.17464,15.051227 360.01839,14.571429 363.46462,14.571429 C 365.64479,14.571429 367.42857,14.814182 367.42857,15.110879 C 367.42857,15.407577 365.85027,17.993975 363.92123,20.858432 C 361.99219,23.722888 360.7867,26.190805 361.24236,26.342692 C 361.69802,26.494578 363.64975,25.959135 365.57953,25.152819 C 368.25189,24.036238 370.59048,21.408577 375.39054,14.129109 L 381.69283,4.571429 L 386.08375,4.571429 L 390.47468,4.571429 L 388.73454,7.321429 C 387.77747,8.833929 384.56417,13.581002 381.59388,17.870481 C 378.62358,22.159959 376.4151,25.89129 376.68613,26.162327 C 376.95717,26.433364 379.02116,25.918006 381.27278,25.017088 C 384.11369,23.88038 386.21775,22.031799 388.1476,18.97703 C 390.73186,14.886386 391.23337,14.574879 395.23759,14.573217 C 399.89448,14.571285 399.90478,14.652293 395.93693,20.071429 C 394.72881,21.721429 393.21563,24.062874 392.57432,25.274641 C 391.41842,27.458699 391.43852,27.465219 394.88631,26.024641 C 399.55605,24.073497 401.42857,24.1949 401.42857,26.448803 C 401.42857,27.904836 399.42328,29.049252 392.49357,31.547991 C 383.66602,34.73106 381.42857,34.82497 381.42857,32.012412 C 381.42857,30.116613 380.52886,30.187829 374.1023,32.592314 C 368.57037,34.662071 365.42857,34.434642 365.42857,31.96444 C 365.42857,30.110467 364.59233,30.194189 358.03103,32.705056 C 353.49092,34.442456 352.17446,34.605423 350.94204,33.582611 C 350.10963,32.891772 349.42857,31.65418 349.42857,30.832407 C 349.42857,29.072787 347.66062,29.364166 338.94098,32.560885 C 329.28965,36.09917 322.75988,34.079497 323.7679,27.867817 C 324.06211,26.054804 324.10664,24.571429 323.86684,24.571429 C 323.62705,24.571429 321.58497,26.362806 319.32888,28.552268 C 315.56669,32.203343 310.46105,34.551834 306.2553,34.565852 C 305.33499,34.568919 303.30412,33.496147 301.74224,32.181912 L 298.90246,29.792396 L 292.66406,32.288343 C 283.36466,36.008977 280.12585,33.649471 284.81208,26.568099 C 288.12935,21.555366 288.09314,21.176404 284.47572,23.047049 C 282.85165,23.886888 280.13003,26.598444 278.42768,29.072729 C 275.63303,33.1346 274.94533,33.571429 271.34535,33.571429 C 267.52847,33.571429 267.40846,33.475347 268.53517,31.321429 C 269.1825,30.083929 270.54833,27.876962 271.57035,26.417059 C 274.22379,22.626752 273.99449,21.356454 270.91052,22.761608 C 269.52559,23.392624 267.05475,26.082976 265.41976,28.740169 C 262.66482,33.21752 262.15336,33.571429 258.43781,33.571429 C 256.23273,33.571429 254.4305,33.233929 254.43285,32.821429 C 254.43521,32.408929 255.78328,30.046429 257.42857,27.571429 C 259.07386,25.096429 260.42193,22.773018 260.42429,22.408293 C 260.4332,21.027854 254.39877,24.089964 253.87824,25.730021 C 252.96478,28.608076 246.68275,33.433118 242.93329,34.136522 C 239.05242,34.864577 233.89686,33.234144 233.04288,31.008708 C 232.61573,29.895584 231.24532,30.106429 225.94819,32.100265 C 217.86125,35.144183 216.07672,35.180189 214.18926,32.337527 L 212.706,30.103625 L 205.92171,32.498682 C 199.35231,34.817875 199.0944,34.834907 197.77928,33.036376 C 196.45622,31.22698 196.28792,31.226918 191.26263,33.033987 L 186.10411,34.888963 L 184.29054,32.649294 L 182.47696,30.409625 L 176.89864,32.496743 C 172.79029,34.033873 170.8248,34.31867 169.43992,33.577502 C 168.18333,32.904999 166.68684,32.902937 164.92895,33.571286 C 161.67725,34.807577 160.41271,34.792599 158.17857,33.49133 z M 244.24443,25.685274 C 248.10822,18.810579 246.5101,15.893879 242.12734,21.821429 C 239.36494,25.557495 238.30539,28.114917 239.16414,28.973663 C 240.56919,30.378715 242.19976,29.323275 244.24443,25.685274 z M 311.258,26.321429 C 313.85247,22.08965 314.35637,19.071429 312.4684,19.071429 C 310.6845,19.071429 306.42857,25.165105 306.42857,27.719312 C 306.42857,30.646316 309.07632,29.879924 311.258,26.321429 z M 338.17828,25.614869 C 340.5454,22.102298 340.79545,19.525751 338.83262,18.872312 C 337.53666,18.440876 332.42857,25.819784 332.42857,28.123313 C 332.42857,30.757233 335.6641,29.345658 338.17828,25.614869 z M 170.89252,24.839294 C 173.18975,21.458619 174.1493,18.571429 172.97562,18.571429 C 169.95553,18.571429 164.42857,24.329399 164.42857,27.475721 C 164.42857,30.014632 168.5058,28.351667 170.89252,24.839294 z M 363.62857,10.371429 C 361.82671,8.569567 362.18287,5.773293 364.36283,4.606613 C 367.45695,2.950687 370.26695,3.400923 371.52651,5.754425 C 372.52121,7.613041 372.36138,8.207418 370.45091,9.754425 C 367.85573,11.85587 365.34049,12.083346 363.62857,10.371429 z M 395,10 C 394.13571,9.135715 393.42857,8.042858 393.42857,7.571429 C 393.42857,5.925178 396.58932,3.571429 398.8,3.571429 C 403.22965,3.571429 405.16417,8.572195 401.49431,10.536245 C 398.78128,11.988215 396.82683,11.826833 395,10 z"
       id="path2481" />
  </g>
</svg>
